<svg width="25" height="33" viewBox="0 0 25 33" fill="none" xmlns="http://www.w3.org/2000/svg">
<g filter="url(#filter0_d_103_291)">
<path d="M14.0625 3.90625V0.78125H10.9375V3.90625H4.6875V24.2188H20.3125V3.90625H14.0625ZM12.5 1.5625C12.7072 1.5625 12.9059 1.64481 13.0524 1.79132C13.1989 1.93784 13.2812 2.13655 13.2812 2.34375C13.2812 2.55095 13.1989 2.74966 13.0524 2.89618C12.9059 3.04269 12.7072 3.125 12.5 3.125C12.2928 3.125 12.0941 3.04269 11.9476 2.89618C11.8011 2.74966 11.7188 2.55095 11.7188 2.34375C11.7188 2.13655 11.8011 1.93784 11.9476 1.79132C12.0941 1.64481 12.2928 1.5625 12.5 1.5625ZM18.75 22.6562H6.25V5.46875H10.9375V7.03125H14.0625V5.46875H18.75V22.6562Z" fill="black"/>
<path d="M12.5 8.59375C10.3422 8.59375 8.59375 10.3422 8.59375 12.5C8.59375 14.6578 10.3422 16.4062 12.5 16.4062C14.6578 16.4062 16.4062 14.6578 16.4062 12.5C16.4062 10.3422 14.6578 8.59375 12.5 8.59375ZM12.5 14.8438C11.2078 14.8438 10.1562 13.7922 10.1562 12.5C10.1562 11.2078 11.2078 10.1562 12.5 10.1562C13.7922 10.1562 14.8438 11.2078 14.8438 12.5C14.8438 13.7922 13.7922 14.8438 12.5 14.8438ZM9.375 17.9688C8.9606 17.9688 8.56317 18.1334 8.27015 18.4264C7.97712 18.7194 7.8125 19.1168 7.8125 19.5312V21.0938H17.1875V19.5312C17.1875 19.1168 17.0229 18.7194 16.7299 18.4264C16.4368 18.1334 16.0394 17.9688 15.625 17.9688H9.375Z" fill="black"/>
</g>
<defs>
<filter id="filter0_d_103_291" x="-4" y="0" width="33" height="33" filterUnits="userSpaceOnUse" color-interpolation-filters="sRGB">
<feFlood flood-opacity="0" result="BackgroundImageFix"/>
<feColorMatrix in="SourceAlpha" type="matrix" values="0 0 0 0 0 0 0 0 0 0 0 0 0 0 0 0 0 0 127 0" result="hardAlpha"/>
<feOffset dy="4"/>
<feGaussianBlur stdDeviation="2"/>
<feComposite in2="hardAlpha" operator="out"/>
<feColorMatrix type="matrix" values="0 0 0 0 0 0 0 0 0 0 0 0 0 0 0 0 0 0 0.25 0"/>
<feBlend mode="normal" in2="BackgroundImageFix" result="effect1_dropShadow_103_291"/>
<feBlend mode="normal" in="SourceGraphic" in2="effect1_dropShadow_103_291" result="shape"/>
</filter>
</defs>
</svg>
